<?xml version="1.0" encoding="utf-8"?>
<!-- Generator: Adobe Illustrator 17.0.0, SVG Export Plug-In . SVG Version: 6.00 Build 0)  -->
<!DOCTYPE svg PUBLIC "-//W3C//DTD SVG 1.1//EN" "http://www.w3.org/Graphics/SVG/1.1/DTD/svg11.dtd">
<svg version="1.1" id="Layer_1" xmlns="http://www.w3.org/2000/svg" xmlns:xlink="http://www.w3.org/1999/xlink" x="0px" y="0px"
	 width="1000px" height="1000px" viewBox="0 0 1000 1000" enable-background="new 0 0 1000 1000" xml:space="preserve">
<g>
	<g>
		<path fill="#FFFFFF" d="M16.613-35.512c1.935,0,1.935-3,0-3S14.678-35.512,16.613-35.512L16.613-35.512z"/>
	</g>
</g>
<g>
	<g>
		<path fill="#FFFFFF" d="M14.333-58.308c1.935,0,1.935-3,0-3S12.399-58.308,14.333-58.308L14.333-58.308z"/>
	</g>
</g>
<g>
	<path fill="none" stroke="#FFFFFF" stroke-width="12" stroke-miterlimit="10" d="M377.083,487.086l200.533-200.533l346.343,346.343
		c11.39-39.203,17.519-80.645,17.519-123.522c0-244.08-197.866-441.946-441.946-441.946S57.586,265.293,57.586,509.374
		c0,6.093,0.158,12.149,0.402,18.182l179.782-179.782L377.083,487.086z"/>
	<path fill="none" stroke="#FFFFFF" stroke-width="12" stroke-miterlimit="10" d="M377.083,487.086L123.129,741.039
		C200.95,867.21,340.41,951.32,499.533,951.32c201.202,0,370.978-134.464,424.427-318.424L577.616,286.553L377.083,487.086z"/>
	<circle fill="none" stroke="#FFFFFF" stroke-width="12" stroke-miterlimit="10" cx="580.866" cy="463.528" r="63.841"/>
</g>
</svg>
